<svg xmlns="http://www.w3.org/2000/svg" viewBox="0 0 1600 1000" preserveAspectRatio="xMidYMid slice">
  <defs>
    <linearGradient id="sky" x1="0" y1="0" x2="1" y2="1">
      <stop offset="0%" stop-color="#ffcf94"/>
      <stop offset="42%" stop-color="#7d8fff"/>
      <stop offset="100%" stop-color="#041a3e"/>
    </linearGradient>
    <radialGradient id="sun" cx="22%" cy="54%" r="18%">
      <stop offset="0%" stop-color="#fff7cf" stop-opacity="1"/>
      <stop offset="100%" stop-color="#fff7cf" stop-opacity="0"/>
    </radialGradient>
    <linearGradient id="water" x1="0" y1="0" x2="0" y2="1">
      <stop offset="0%" stop-color="#8dc4ff" stop-opacity="0.38"/>
      <stop offset="100%" stop-color="#00193d" stop-opacity="0.75"/>
    </linearGradient>
  </defs>

  <rect width="1600" height="1000" fill="url(#sky)"/>
  <circle cx="350" cy="520" r="220" fill="url(#sun)"/>
  <path d="M0,620 C250,420 420,430 620,580 S1080,690 1600,470 L1600,1000 L0,1000 Z" fill="#133464" opacity="0.86"/>
  <path d="M0,650 C230,550 410,540 650,650 S1100,760 1600,600 L1600,1000 L0,1000 Z" fill="#1a4b82" opacity="0.82"/>
  <path d="M0,705 C290,650 430,660 640,730 S1140,820 1600,740 L1600,1000 L0,1000 Z" fill="url(#water)"/>

  <g opacity="0.18">
    <circle cx="1160" cy="350" r="180" fill="#f7fbff"/>
    <path d="M1000 350c60-160 260-180 350-30 54 90 27 186-54 252-54 44-130 68-194 34-104-55-145-146-102-256z" fill="#d4e4ff"/>
  </g>

  <g fill="#ffffff" opacity="0.72" font-family="Inter, Arial, sans-serif" font-size="26" font-weight="600">
    <text x="95" y="285">Hello</text>
    <text x="130" y="365">Bonjour</text>
    <text x="120" y="445">你好</text>
    <text x="140" y="525">नमस्ते</text>
    <text x="1320" y="280">Hola</text>
    <text x="1225" y="360">こんにちは</text>
    <text x="1275" y="440">Привет</text>
    <text x="1340" y="520">مرحبا</text>
  </g>

  <g stroke="#ffffff" stroke-opacity="0.24" fill="none">
    <path d="M260 210 C420 110, 620 140, 800 260" stroke-width="2.3"/>
    <path d="M820 255 C980 160, 1170 160, 1340 255" stroke-width="2.3"/>
    <path d="M355 240 C560 390, 1050 390, 1250 245" stroke-width="1.8"/>
  </g>

  <g opacity="0.16">
    <circle cx="300" cy="190" r="6" fill="#fff"/>
    <circle cx="740" cy="225" r="5" fill="#fff"/>
    <circle cx="1240" cy="210" r="8" fill="#fff"/>
    <circle cx="1060" cy="160" r="4" fill="#fff"/>
  </g>
</svg>